<svg width="16" height="17" viewBox="0 0 16 17" fill="none" xmlns="http://www.w3.org/2000/svg">
<g clip-path="url(#clip0_81_2830)">
<path d="M11 9.25H8.75C8.3375 9.25 8 9.5875 8 10V12.25C8 12.6625 8.3375 13 8.75 13H11C11.4125 13 11.75 12.6625 11.75 12.25V10C11.75 9.5875 11.4125 9.25 11 9.25ZM11 1.75V2.5H5V1.75C5 1.3375 4.6625 1 4.25 1C3.8375 1 3.5 1.3375 3.5 1.75V2.5H2.75C1.9175 2.5 1.2575 3.175 1.2575 4L1.25 14.5C1.25 15.325 1.9175 16 2.75 16H13.25C14.075 16 14.75 15.325 14.75 14.5V4C14.75 3.175 14.075 2.5 13.25 2.5H12.5V1.75C12.5 1.3375 12.1625 1 11.75 1C11.3375 1 11 1.3375 11 1.75ZM12.5 14.5H3.5C3.0875 14.5 2.75 14.1625 2.75 13.75V6.25H13.25V13.75C13.25 14.1625 12.9125 14.5 12.5 14.5Z" fill="white"/>
</g>
<defs>
<clipPath id="clip0_81_2830">
<rect width="16" height="16" fill="white" transform="translate(0 0.5)"/>
</clipPath>
</defs>
</svg>
