<svg width="16" height="17" viewBox="0 0 16 17" fill="none" xmlns="http://www.w3.org/2000/svg">
<g clip-path="url(#clip0_81_2840)">
<path d="M8.00002 4.49996C10.5267 4.49996 12.78 5.91996 13.88 8.16663C12.78 10.4133 10.5267 11.8333 8.00002 11.8333C5.47335 11.8333 3.22002 10.4133 2.12002 8.16663C3.22002 5.91996 5.47335 4.49996 8.00002 4.49996ZM8.00002 3.16663C4.66669 3.16663 1.82002 5.23996 0.666687 8.16663C1.82002 11.0933 4.66669 13.1666 8.00002 13.1666C11.3334 13.1666 14.18 11.0933 15.3334 8.16663C14.18 5.23996 11.3334 3.16663 8.00002 3.16663ZM8.00002 6.49996C8.92002 6.49996 9.66669 7.24663 9.66669 8.16663C9.66669 9.08663 8.92002 9.83329 8.00002 9.83329C7.08002 9.83329 6.33335 9.08663 6.33335 8.16663C6.33335 7.24663 7.08002 6.49996 8.00002 6.49996ZM8.00002 5.16663C6.34669 5.16663 5.00002 6.51329 5.00002 8.16663C5.00002 9.81996 6.34669 11.1666 8.00002 11.1666C9.65335 11.1666 11 9.81996 11 8.16663C11 6.51329 9.65335 5.16663 8.00002 5.16663Z" fill="white"/>
</g>
<defs>
<clipPath id="clip0_81_2840">
<rect width="16" height="16" fill="white" transform="translate(0 0.5)"/>
</clipPath>
</defs>
</svg>
