<svg width="16" height="17" viewBox="0 0 16 17" fill="none" xmlns="http://www.w3.org/2000/svg">
<g clip-path="url(#clip0_81_2822)">
<path d="M7.99998 1.83337C5.41998 1.83337 3.33331 3.92004 3.33331 6.50004C3.33331 10 7.99998 15.1667 7.99998 15.1667C7.99998 15.1667 12.6666 10 12.6666 6.50004C12.6666 3.92004 10.58 1.83337 7.99998 1.83337ZM4.66665 6.50004C4.66665 4.66004 6.15998 3.16671 7.99998 3.16671C9.83998 3.16671 11.3333 4.66004 11.3333 6.50004C11.3333 8.42004 9.41331 11.2934 7.99998 13.0867C6.61331 11.3067 4.66665 8.40004 4.66665 6.50004Z" fill="white"/>
<path d="M7.99998 8.16671C8.92045 8.16671 9.66665 7.42052 9.66665 6.50004C9.66665 5.57957 8.92045 4.83337 7.99998 4.83337C7.07951 4.83337 6.33331 5.57957 6.33331 6.50004C6.33331 7.42052 7.07951 8.16671 7.99998 8.16671Z" fill="white"/>
</g>
<defs>
<clipPath id="clip0_81_2822">
<rect width="16" height="16" fill="white" transform="translate(0 0.5)"/>
</clipPath>
</defs>
</svg>
