<svg width="24" height="24" viewBox="0 0 24 24" fill="none" xmlns="http://www.w3.org/2000/svg">
<path fill-rule="evenodd" clip-rule="evenodd" d="M7 4C5.34315 4 4 5.34315 4 7V14C4 15.6569 5.34315 17 7 17H7.5C8.05228 17 8.5 17.4477 8.5 18V19.9194L11.8753 17.2191C12.0526 17.0773 12.2729 17 12.5 17H17C18.6569 17 20 15.6569 20 14V7C20 5.34315 18.6569 4 17 4H7ZM2 7C2 4.23858 4.23858 2 7 2H17C19.7614 2 22 4.23858 22 7V14C22 16.7614 19.7614 19 17 19H12.8508L8.12469 22.7809C7.82452 23.021 7.41328 23.0678 7.06681 22.9013C6.72035 22.7348 6.5 22.3844 6.5 22V18.9753C3.97334 18.7244 2 16.5927 2 14V7Z" fill="#B6B6B6"/>
<path d="M9 11C9 11.5523 8.55228 12 8 12C7.44772 12 7 11.5523 7 11C7 10.4477 7.44772 10 8 10C8.55228 10 9 10.4477 9 11Z" fill="#B6B6B6"/>
<path d="M13 11C13 11.5523 12.5523 12 12 12C11.4477 12 11 11.5523 11 11C11 10.4477 11.4477 10 12 10C12.5523 10 13 10.4477 13 11Z" fill="#B6B6B6"/>
<path d="M17 11C17 11.5523 16.5523 12 16 12C15.4477 12 15 11.5523 15 11C15 10.4477 15.4477 10 16 10C16.5523 10 17 10.4477 17 11Z" fill="#B6B6B6"/>
</svg>
