<svg width="95" height="64" viewBox="0 0 95 64" fill="none" xmlns="http://www.w3.org/2000/svg">
<path d="M10.4715 53.8791C10.3882 53.1521 10.3154 52.1858 10.2527 50.9808C10.1693 49.7761 10.1381 49.1421 10.1592 49.0796C10.2215 48.8724 10.2733 48.249 10.3154 47.2098C10.357 46.2126 10.409 45.3711 10.4715 44.6857C10.5546 43.8548 10.3882 43.3664 9.9717 43.2211C9.80457 43.1584 9.71069 43.1272 9.69015 43.1272C9.62759 43.1272 9.56521 43.1584 9.50265 43.2211C9.12767 43.5949 8.91908 43.8962 8.87753 44.1248C8.77305 44.7478 8.69005 45.7558 8.6274 47.1476C8.60667 47.7295 8.17917 48.5919 7.34602 49.7342C6.6997 50.6277 6.18957 51.2301 5.81422 51.5416C4.89704 52.2691 4.12644 52.6324 3.50123 52.6324C3.29273 52.6324 3.1467 52.612 3.0636 52.57C2.98022 52.5287 2.84479 52.4041 2.6573 52.1963C1.51107 50.9494 1.0424 49.4021 1.25099 47.5527C1.31327 47.0127 1.32349 46.3791 1.28204 45.6516C1.24011 44.9245 1.16724 44.4988 1.06322 44.374C0.875547 44.1248 0.739831 44.2077 0.657195 44.6232C0.6149 44.8521 0.552345 44.9972 0.469243 45.0595C0.239924 45.2466 0.125588 45.8907 0.125588 46.9918C0.0425801 47.6099 0.000659767 48.1942 9.08539e-06 48.7449C-0.00194296 50.2673 0.31066 51.532 0.938196 52.5388C1.31327 53.1831 1.64642 53.5674 1.93848 53.6921C2.47994 53.9413 2.89684 54.0662 3.18881 54.0662C3.29274 54.0662 3.38662 54.0662 3.47 54.0662C3.84507 54.0662 4.17822 54.0036 4.47028 53.8791C5.82481 53.2977 7.13742 51.9469 8.40848 49.8278C8.63762 49.4333 8.79415 49.163 8.87753 49.0175L9.00247 54.9387C8.98165 55.2298 9.09635 55.822 9.3464 56.715L9.53398 57.7433C9.55443 57.8267 9.74192 58.0347 10.0964 58.3665C10.492 58.7202 10.732 58.8966 10.8154 58.8966C10.8983 58.8966 10.9507 58.845 10.9715 58.7408C11.0131 58.6369 11.0443 58.4187 11.0655 58.0863C11.0655 58.024 11.0655 57.9513 11.0655 57.8682C11.0655 57.4113 11.0029 56.8504 10.878 56.1852C10.7109 55.3749 10.5758 54.6065 10.4715 53.8791Z" fill="#1D1D1E"/>
<path d="M23.3494 53.879C23.2657 53.1521 23.1929 52.1858 23.1306 50.9808C23.0469 49.7761 23.0156 49.1421 23.0368 49.0796C23.0994 49.0175 23.1511 48.3941 23.1929 47.2098C23.2555 46.2126 23.3072 45.3711 23.3494 44.6857C23.4322 43.8548 23.2657 43.3664 22.8491 43.2211C22.6822 43.1584 22.5886 43.1272 22.568 43.1272C22.4632 43.1692 22.4009 43.2004 22.3801 43.2211C22.0677 43.3252 21.8591 43.6259 21.7552 44.1248C21.6505 44.6028 21.5677 45.6104 21.5051 47.1476C21.4426 48.7893 21.349 49.9733 21.2238 50.7002C21.1192 51.4278 20.9114 52.1549 20.5986 52.8818C20.3276 53.5051 19.9002 54.2218 19.3173 55.0321C18.7546 55.8633 18.2438 56.4654 17.7858 56.8398C17.1605 57.4005 16.629 57.681 16.1916 57.681C15.9829 57.681 15.8371 57.6607 15.7539 57.6188C15.6701 57.5773 15.5351 57.4528 15.3475 57.245C14.6597 56.4969 14.1911 54.9493 13.941 52.6014C13.8577 51.7288 13.8263 51.0951 13.8474 50.7002C13.8474 50.2848 13.941 49.2357 14.1285 47.5527C14.1911 47.0127 14.2014 46.3791 14.1599 45.6516C14.1177 44.9245 14.0451 44.4988 13.941 44.374C13.7739 44.1456 13.6388 44.2289 13.5346 44.6232C13.5136 44.8311 13.4512 44.9768 13.3471 45.0595C13.1173 45.2466 13.0035 45.8907 13.0035 46.9918C13.0035 47.5527 12.9511 48.041 12.8472 48.4566C12.7008 48.8724 12.6283 49.8696 12.6283 51.4483C12.6283 53.0064 12.7008 54.1081 12.8472 54.7516C13.097 55.978 13.42 56.9332 13.8161 57.6188C14.1489 58.1382 14.4826 58.5226 14.8163 58.7718C15.1287 59.0007 15.5454 59.1253 16.0663 59.1458C16.1705 59.1458 16.264 59.1458 16.3479 59.1458C16.7229 59.1458 17.0561 59.0835 17.348 58.9587C18.7438 58.3152 20.0564 56.9643 21.2864 54.9075C21.5155 54.5133 21.6716 54.2429 21.7552 54.0971C21.8175 54.4712 21.8591 54.7516 21.8802 54.9387C22.0052 55.5829 22.1194 56.175 22.224 56.715L22.4115 57.7433C22.4115 57.8058 22.599 58.0136 22.974 58.3665C23.3699 58.7202 23.6095 58.8966 23.6931 58.8966C23.7762 58.8966 23.8283 58.845 23.8492 58.7407C23.891 58.6369 23.9221 58.4187 23.9433 58.0863C23.9433 58.024 23.9433 57.9513 23.9433 57.8682C23.9433 57.4113 23.8806 56.8504 23.7558 56.1852C23.5887 55.3749 23.4532 54.6065 23.3494 53.879Z" fill="#1D1D1E"/>
<path d="M75.2526 38.284C75.3503 38.2574 75.4291 38.2221 75.4874 38.1771C75.5837 38.1023 75.6102 38.0308 75.5693 37.9635C75.5452 37.8324 75.2328 37.6753 74.6339 37.4923C73.6346 37.1714 71.9494 36.5079 69.5814 35.5019C67.6757 34.6873 66.2 34.0852 65.1587 33.6965C62.3946 32.6984 59.187 31.4464 55.5358 29.9397C53.5723 29.1173 51.921 28.4009 50.572 27.7868C51.2896 27.4477 51.7799 27.1529 52.0405 26.9026C52.2077 26.7385 52.2993 26.5458 52.3151 26.3259C52.3504 26.2447 52.3641 26.1689 52.354 26.0997C52.3371 25.9845 52.2786 25.9165 52.1802 25.8944C52.0247 25.8162 51.6535 25.9036 51.0679 26.1553C50.074 26.5644 48.2678 27.1667 45.6514 27.9605C43.8597 28.4998 42.4375 28.9494 41.3783 29.3101C41.3938 28.9841 41.4042 28.6832 41.408 28.4144L41.4423 26.5846C40.8586 25.6421 40.108 26.5846 40.108 26.5846L39.9618 28.5238C39.938 28.6967 39.9134 28.8802 39.8882 29.0756C39.8463 29.3577 39.8062 29.6253 39.7675 29.8859C37.1311 30.8315 34.0636 31.8558 30.5636 32.958C26.574 34.1908 23.6495 35.0073 21.79 35.4072C21.3596 35.489 21.0022 35.5592 20.7115 35.6187C20.5368 35.6811 20.1495 35.7421 20.1409 35.7428C20.0779 35.7577 17.5344 36.2988 17.4932 36.3164C17.4913 36.3439 16.6193 36.5956 15.0367 36.9218C10.2012 37.949 7.31111 38.6723 6.36529 39.0925C5.96382 39.2954 5.77522 39.4779 5.79892 39.639C5.85869 39.7193 5.96615 39.7985 6.12138 39.8765C6.228 39.9443 7.46876 39.7452 9.84505 39.2784C15.1656 38.29 20.9829 37.0853 21.1733 37.0823C21.7371 37.0037 23.3803 36.601 26.1018 35.8747C28.782 35.1836 30.9718 34.5875 32.6711 34.0855C35.352 33.2601 37.6113 32.5417 39.4602 31.9279C39.1945 33.6752 39.0511 34.5612 39.0306 34.5827C39.0238 34.5827 38.8734 36.5716 38.8954 36.5942C38.9249 36.6264 38.9102 36.7065 38.8502 36.8339C38.7599 37.2168 38.7148 38.3501 38.7148 40.2338C38.6846 42.086 38.6992 43.6025 38.7599 44.7831C39.0603 48.8378 39.3919 51.5357 39.7529 52.8769C39.8728 53.3243 39.9786 53.9144 40.0687 54.6487C40.3693 56.692 40.7753 57.9366 41.2874 58.3838C41.4375 58.511 41.6482 58.591 41.919 58.623C42.0094 58.6544 42.0995 58.6711 42.1901 58.6711C42.3402 58.6711 42.4454 58.6387 42.5059 58.5753C42.6561 58.4797 42.6709 58.2237 42.551 57.8093C42.3704 57.1075 42.2195 55.8459 42.0995 54.0258C42.0094 52.558 41.9036 51.4398 41.7836 50.6738C41.4227 48.6621 41.1216 46.2675 40.8811 43.49C40.6702 40.7131 40.625 38.6856 40.7457 37.4083C40.7875 37.1137 40.819 36.8689 40.8415 36.6694C40.8219 36.5468 40.8751 36.2831 40.8771 36.2773C40.8796 36.2339 40.8811 36.1943 40.8811 36.1629C40.8946 36.16 40.9843 34.4485 40.9714 34.4393C40.941 34.4079 40.9862 33.8488 41.1068 32.763C41.1577 32.251 41.2016 31.7744 41.2397 31.3254C42.5279 30.8792 43.5343 30.5046 44.2552 30.2029C44.8882 29.9386 45.7293 29.6297 46.7802 29.2774C47.5346 29.0142 48.2096 28.7665 48.8083 28.5336C49.1866 28.7121 49.5976 28.9048 50.0456 29.1131C52.358 30.2128 54.2767 31.0936 55.8018 31.7547C61.0993 33.9795 64.708 35.3939 66.628 35.9994C67.2683 36.2012 68.0793 36.4943 69.0615 36.8795C71.8268 37.9261 73.6539 38.4525 74.546 38.459C74.8025 38.4586 75.0386 38.4004 75.2526 38.284Z" fill="#1D1D1E"/>
<path d="M53.8333 53.4713C53.7285 54.1365 53.4269 54.8324 52.9268 55.5593C52.3843 56.3696 51.6345 56.8372 50.6764 56.9618C50.3425 57.0241 50.03 57.0553 49.7385 57.0553C49.1548 57.0553 48.6235 56.9514 48.1445 56.7436C47.4146 56.4529 46.748 55.8504 46.1439 54.9361C45.6438 54.1469 45.3104 53.2949 45.1437 52.3805C45.1018 52.0486 45.0814 51.7055 45.0814 51.3522C45.0814 50.9991 45.1018 50.6252 45.1437 50.2302C45.3104 49.233 45.4877 48.4957 45.6751 48.0176C45.8628 47.5399 46.2065 47.0311 46.7066 46.4905C47.2483 45.9295 47.7172 45.5557 48.1131 45.3688C48.5088 45.2028 49.1234 45.1194 49.9572 45.1194C50.3111 45.099 50.5824 45.0882 50.7699 45.0882C50.8741 45.1503 50.9678 45.2028 51.0513 45.2439C51.1552 45.2857 51.2804 45.3687 51.4265 45.4933C51.9891 46.2831 52.5516 47.2386 53.114 48.3604C53.322 48.8176 53.4683 49.1708 53.5518 49.4202C53.6145 49.6488 53.6768 50.0329 53.7392 50.573C53.8434 51.3419 53.8956 51.9965 53.8956 52.5361C53.8956 52.9106 53.8744 53.2221 53.8333 53.4713ZM53.2394 45.5244C52.9682 45.2127 52.572 44.8807 52.0515 44.5271C51.5303 44.1951 51.0823 43.956 50.7074 43.8105C50.4574 43.7066 50.0927 43.6545 49.6134 43.6545C49.5509 43.6545 49.4882 43.6545 49.4261 43.6545C49.0509 43.6545 48.7585 43.6856 48.5507 43.7481C48.0921 43.8726 47.8631 43.9873 47.8631 44.0911C47.8631 44.1742 47.7588 44.2264 47.5504 44.2467C47.217 44.309 46.7689 44.5689 46.2065 45.0257C45.6438 45.4829 45.2265 45.9091 44.956 46.3034C44.1226 47.5502 43.7061 49.233 43.7061 51.3522C43.7264 52.3495 43.7998 53.0663 43.9249 53.5025C44.7372 55.8709 46.1646 57.45 48.2069 58.2395C48.6651 58.4266 49.2698 58.5409 50.02 58.5822C50.2073 58.5822 50.3949 58.5822 50.5824 58.5822C51.0823 58.5822 51.5199 58.5409 51.8953 58.4576C53.7496 57.9385 54.8957 56.6811 55.3334 54.6867C55.3962 54.3126 55.4273 53.7728 55.4273 53.0662C55.4273 52.8791 55.4273 52.6715 55.4273 52.4429C55.4062 51.4253 55.3125 50.594 55.1459 49.9498C54.6871 47.8725 54.0517 46.3969 53.2394 45.5244Z" fill="#1D1D1E"/>
<path d="M65.8093 51.9081C65.8094 51.8645 65.8096 51.8243 65.8098 51.7805C65.8098 51.7715 65.8093 51.761 65.8093 51.7524C65.8093 51.7922 65.8093 51.8436 65.8093 51.9081Z" fill="#1D1D1E"/>
<path d="M57.6201 51.7837C57.6203 51.7396 57.6205 51.6991 57.6207 51.6554C57.6207 51.6466 57.6201 51.6362 57.6201 51.6277C57.6201 51.6673 57.6201 51.7189 57.6201 51.7837Z" fill="#1D1D1E"/>
<path d="M67.4298 55.8038C67.4089 55.1392 67.3671 54.4948 67.3047 53.8717C67.0753 51.6278 66.9499 50.1737 66.9296 49.5087C66.9086 49.3425 66.8984 49.1868 66.8984 49.0413C66.8984 46.6553 66.8786 44.965 66.8388 43.9666C66.8482 43.93 66.8578 43.8961 66.8674 43.8681C66.8961 43.6935 66.8765 43.562 66.8136 43.4689C66.8107 43.4231 66.8078 43.3783 66.8046 43.3381C66.8046 43.2344 66.6484 43.1824 66.3358 43.1824C66.2939 43.1824 66.2625 43.1824 66.2422 43.1824C66.2318 43.1824 66.2233 43.1834 66.2134 43.1836C65.8456 43.1076 65.3239 43.076 64.6481 43.0889C63.7101 43.0684 62.9182 43.0162 62.2724 42.933C61.6679 42.8293 60.866 42.767 59.8658 42.7458C59.6781 42.7458 59.4904 42.7458 59.3031 42.7458C58.6155 42.7458 58.1672 42.7771 57.9588 42.8395C57.6464 42.9437 57.4166 43.1511 57.2713 43.4626C57.1669 43.6295 57.1152 43.7851 57.1152 43.9302C57.1152 44.0134 57.1355 44.0967 57.1775 44.1796C57.2228 44.24 57.319 44.2835 57.4626 44.3107C57.3705 45.6311 57.3174 48.0765 57.3032 51.6555C57.3065 52.0326 57.3788 52.6563 57.5214 53.5288C57.5837 53.8202 57.6464 54.5681 57.7091 55.7727C57.7294 56.3133 57.792 56.801 57.8964 57.2375C58.0002 57.6533 58.1044 57.8607 58.2088 57.8607C58.2717 57.8607 58.3446 57.9438 58.4278 58.1101C58.532 58.297 58.6883 58.4219 58.8969 58.4841C59.0008 58.5258 59.0946 58.5462 59.1778 58.5462C59.3031 58.5462 59.3967 58.5151 59.4593 58.4528C59.5424 58.3491 59.5843 58.2144 59.5843 58.0475C59.5843 57.9027 59.522 57.57 59.3967 57.0503C59.3134 56.6974 59.2608 56.2402 59.2405 55.6792C59.2194 55.0145 59.1778 54.3705 59.1156 53.7469C58.886 51.5033 58.7611 50.0493 58.7406 49.3841C58.7195 49.2179 58.7093 49.0621 58.7093 48.9167C58.7093 46.756 58.6928 45.1676 58.6603 44.1449C58.9231 44.115 59.2813 44.1055 59.7404 44.1171C60.5324 44.1382 61.1886 44.2006 61.7098 44.3043C62.8352 44.5122 63.5539 44.6267 63.8666 44.647C63.9082 44.647 63.9392 44.647 63.9603 44.647C64.2681 44.647 64.8325 44.6025 65.6462 44.5144C65.5577 45.8526 65.5064 48.2734 65.4923 51.7805C65.4956 52.1576 65.5679 52.781 65.7105 53.6537C65.7731 53.9446 65.8357 54.6926 65.8983 55.8975C65.9188 56.4379 65.9811 56.9257 66.0855 57.3621C66.1897 57.7778 66.2939 57.9852 66.3983 57.9852C66.4608 57.9852 66.5334 58.0687 66.6171 58.2346C66.7209 58.4219 66.8774 58.5462 67.0857 58.6086C67.1899 58.6507 67.2838 58.6708 67.3671 58.6708C67.4922 58.6708 67.5861 58.6398 67.6486 58.5774C67.7315 58.4738 67.7738 58.339 67.7738 58.1724C67.7738 58.0272 67.7109 57.6949 67.5861 57.1751C67.5023 56.822 67.4504 56.3647 67.4298 55.8038Z" fill="#1D1D1E"/>
<path d="M79.4325 46.1838C79.4325 46.537 79.3387 47.2539 79.1511 48.334C78.9637 49.4144 78.8386 50.1414 78.7762 50.5154C78.4638 52.1156 77.9423 53.4346 77.2133 54.4734C76.5049 55.4913 75.6191 56.1147 74.5564 56.3432C73.8477 56.4888 73.2438 56.5612 72.7433 56.5612C72.1391 56.3952 71.6701 56.1358 71.3373 55.7823C70.8786 55.3044 70.6496 54.8269 70.6496 54.3486C70.6496 54.0787 70.701 53.6941 70.8057 53.1956C70.8887 52.6969 70.9826 52.396 71.0872 52.2918C71.1496 52.1257 71.2535 51.9387 71.3996 51.7308C71.4827 51.544 71.5972 51.2741 71.7435 50.9206C71.8059 50.8169 71.9412 50.5574 72.1495 50.1414C72.3375 49.7053 72.4727 49.3832 72.556 49.1754L73.3373 47.5548C73.504 47.1809 73.6917 46.8488 73.9003 46.5576C74.1083 46.2669 74.3374 46.0277 74.5877 45.8408C75.0669 45.4256 75.7024 45.1347 76.4945 44.9682C76.8485 44.8853 77.1821 44.8435 77.4947 44.8435C77.8277 44.8435 78.1404 44.8957 78.4324 44.9994C78.7449 45.1035 78.984 45.2593 79.1511 45.4667C79.3591 45.6537 79.4532 45.872 79.4325 46.1212C79.4325 46.1424 79.4325 46.163 79.4325 46.1838ZM81.4018 55.9693C81.1305 55.1796 80.943 54.1305 80.8392 52.8218C80.7345 51.5128 80.7556 50.2871 80.9015 49.1442C80.9846 48.3757 81.0267 47.6794 81.0267 47.0562C81.0472 46.4124 81.0267 46.0696 80.9642 46.0277C80.9015 45.9865 80.8702 45.7785 80.8702 45.4044C80.8702 45.0724 80.7658 44.8123 80.5577 44.6254C80.3491 44.4594 80.0265 44.2723 79.5889 44.0643C78.9425 43.7325 78.2136 43.5657 77.4008 43.5657C76.9631 43.5657 76.5049 43.6077 76.0256 43.6905C74.3169 44.0229 72.8475 45.2281 71.6184 47.3053C71.2432 47.9499 70.785 48.8745 70.243 50.0791C69.6803 51.2635 69.3571 52.0424 69.274 52.4165C69.1493 53.1022 69.0866 53.7361 69.0866 54.3173C69.0866 54.7748 69.1282 55.201 69.2116 55.5953C69.4406 56.3432 69.6492 56.9042 69.8367 57.2782C70.0243 57.6522 70.3886 57.9745 70.9308 58.2444C71.1599 58.3688 71.3577 58.4523 71.5245 58.4936C71.6701 58.5144 71.9622 58.5248 72.3998 58.5248C73.0664 58.5248 73.6603 58.4418 74.1814 58.2752C75.4105 57.8392 76.3588 57.3302 77.0259 56.7483C77.6925 56.167 78.3386 55.367 78.9637 54.3486C78.984 54.3072 79.0054 54.2762 79.0263 54.2551C79.2138 53.9433 79.3074 53.8501 79.3074 53.9746C79.3074 54.058 79.3387 54.4734 79.4012 55.2213C79.505 56.1982 79.8077 56.977 80.3076 57.5585C80.7868 58.1405 81.1932 58.3377 81.5268 58.1506C81.631 58.0884 81.6931 58.0158 81.7143 57.9327C81.7143 57.9121 81.7143 57.881 81.7143 57.8392C81.7143 57.7142 81.7037 57.5483 81.683 57.3405C81.6411 56.9042 81.5472 56.4474 81.4018 55.9693Z" fill="#1D1D1E"/>
<path d="M93.3512 53.6537C93.3089 53.8615 93.2263 54.1522 93.1012 54.526C92.8302 55.1912 92.5488 55.6378 92.2571 55.8662C91.9446 56.0951 91.3821 56.2402 90.5693 56.3026C90.4233 56.3232 90.2772 56.3338 90.1318 56.3338C89.4021 56.3338 88.7042 56.1574 88.0375 55.8038C87.683 55.5754 87.3187 55.2741 86.9435 54.9001C86.5472 54.5058 86.2452 54.0796 86.0372 53.6223C85.8495 53.2692 85.6723 52.823 85.5056 52.2821C85.3388 51.7631 85.2558 51.4095 85.2558 51.2227C85.2558 51.0567 85.2035 50.9219 85.0997 50.8179C85.037 50.7763 85.0057 50.6414 85.0057 50.4124C85.0057 50.2256 85.026 49.9761 85.0683 49.6646C85.1722 48.9999 85.287 48.5013 85.4121 48.1684C85.7036 47.2756 86.0576 46.569 86.4747 46.0497C86.5998 45.8832 86.9016 45.5821 87.3811 45.1458C87.8603 44.7304 88.1938 44.481 88.3813 44.3978C88.7564 44.2526 89.1519 44.1591 89.5691 44.1171C89.6317 44.1171 89.6939 44.1171 89.7566 44.1171C90.0691 44.0967 90.3505 44.1591 90.6007 44.3043C90.8712 44.45 91.1734 44.6992 91.507 45.052C91.9446 45.5304 92.2153 45.9354 92.3197 46.2676C92.6324 46.912 92.8925 47.8365 93.1012 49.0413C93.2886 50.2463 93.3826 51.4307 93.3826 52.5939C93.3826 53.0926 93.3716 53.4463 93.3512 53.6537ZM95 53.6918V52.7831C94.9775 52.0955 94.9069 51.3053 94.7891 50.4124C94.5177 48.2518 94.1219 46.6522 93.6014 45.6132C93.3928 45.1977 93.0384 44.7202 92.5385 44.1796C92.0386 43.6605 91.6214 43.307 91.288 43.1199C90.9547 42.9539 90.4855 42.8394 89.8816 42.7771C89.6522 42.7568 89.4442 42.7458 89.2567 42.7458C88.9439 42.7458 88.6832 42.7771 88.4749 42.8395C88.329 42.8813 88.1312 42.9748 87.8812 43.1199C87.6313 43.2656 87.4642 43.4005 87.3811 43.5252C87.3392 43.546 87.1828 43.6605 86.9122 43.8681C86.2452 44.3251 85.7036 44.9694 85.287 45.8001C85.245 45.9044 85.2137 45.9769 85.1931 46.0182C85.1512 46.0182 85.1306 45.5509 85.1306 44.6158C85.1306 43.8475 85.1408 43.3279 85.1618 43.0575C84.9744 43.0996 84.8386 43.1199 84.7555 43.1199C84.6305 43.0996 84.5159 43.1097 84.4117 43.1511C84.2868 43.1929 84.2133 43.276 84.193 43.4005C84.1095 43.8369 84.0366 44.2318 83.974 44.5849C83.807 45.5615 83.6719 47.0988 83.5677 49.197C83.4842 50.6929 83.4429 52.0228 83.4429 53.1861C83.4429 53.6642 83.4531 54.1106 83.4743 54.526C83.5571 57.6425 83.6929 59.7306 83.8805 60.7903C83.9843 61.4135 84.0572 62.0056 84.0993 62.5668C84.1616 63.148 84.276 63.5217 84.443 63.6883C84.6721 63.8957 84.8911 64.0001 85.0997 64.0001C85.3285 64.0001 85.5369 63.9065 85.7245 63.7196C85.8701 63.4907 85.9224 63.1169 85.8809 62.5976C85.8389 62.0989 85.7556 61.4963 85.6307 60.7903C85.4848 60.0836 85.3808 59.0762 85.3181 57.7674C85.2558 56.3959 85.2035 55.6273 85.1618 55.4611C85.1198 55.2949 85.1099 55.2223 85.1306 55.243C85.1722 55.2639 85.3075 55.4195 85.5369 55.7103C85.9534 56.3756 86.6099 56.9257 87.5059 57.3621C88.3813 57.8193 89.2771 58.0475 90.1944 58.0475C91.1734 58.0475 92.0277 57.8607 92.7573 57.4868C93.2573 57.2794 93.6841 56.9568 94.0386 56.5207C94.4139 56.0842 94.6741 55.6067 94.82 55.087C94.9197 54.7075 94.9796 54.2423 95 53.6918Z" fill="#1D1D1E"/>
<path d="M39.1609 11.292C39.1209 9.55602 39.8543 8.15117 40.1711 7.6279C40.4026 7.24625 40.6062 7.03188 40.8031 6.82428C40.9794 6.63874 41.1461 6.46311 41.2999 6.20166C41.5153 5.83586 41.6839 5.46569 41.8202 5.09646C41.8313 5.12028 41.8404 5.14002 41.8515 5.16439C42.3532 6.23558 43.04 7.70252 42.8534 8.93358C42.6848 10.0453 42.3057 10.6606 41.8671 11.3732C41.4154 12.1068 40.9034 12.9382 40.5293 14.4514C40.1879 15.8346 39.7197 17.729 40.4645 19.7134C40.5797 20.0194 40.6979 20.2621 40.8127 20.4969C41.0113 20.9032 41.1825 21.2538 41.2765 21.8306C41.4361 22.8136 41.2691 23.859 40.7823 24.9381C39.7535 23.662 39.2019 22.3705 39.1463 21.0977C39.1125 20.3265 39.2647 19.8346 39.4576 19.2119C39.6506 18.5883 39.8692 17.8813 39.9717 16.7164C40.0598 15.7146 40.193 14.2003 39.6581 12.5578C39.505 12.0877 39.3307 11.7082 39.144 11.3862C39.1538 11.3561 39.1617 11.3253 39.1609 11.292ZM32.3906 0.530782C33.9341 1.52051 34.9823 2.73304 35.5064 4.13398C35.7864 4.88218 35.8018 5.38191 35.8183 5.91083C35.8364 6.48897 35.8549 7.08675 36.1803 8.02244C36.6192 9.28632 37.181 9.89995 37.7239 10.4932C38.2459 11.0635 38.7391 11.6022 39.1082 12.7358C39.6066 14.2669 39.4849 15.6536 39.3959 16.6661C39.2984 17.7702 39.0896 18.4459 38.9048 19.042C38.7041 19.6912 38.5305 20.2519 38.5685 21.1231C38.6305 22.5337 39.2334 23.9513 40.3607 25.3366C40.4178 25.4069 40.501 25.4433 40.5854 25.4433C40.6493 25.4433 40.7137 25.4223 40.7675 25.3789C40.7991 25.3534 40.8234 25.3224 40.841 25.2885C40.8635 25.3093 40.8869 25.3293 40.9162 25.3425C40.9549 25.3601 40.9956 25.3685 41.0355 25.3685C41.1455 25.3685 41.2507 25.3055 41.299 25.1991C41.8423 24.0069 42.0267 22.8426 41.8473 21.7384C41.7399 21.0778 41.542 20.6728 41.3328 20.2445C41.224 20.0219 41.1115 19.7916 41.0063 19.5114C40.3238 17.6939 40.749 15.9724 41.0913 14.5881C41.4433 13.1635 41.9094 12.4066 42.3599 11.6747C42.8119 10.9405 43.2389 10.2473 43.4248 9.01958C43.6379 7.61641 42.9082 6.05829 42.3755 4.92056C42.2553 4.66365 42.1511 4.43992 42.0744 4.25224C42.4543 2.63183 42.2299 1.11985 42.0075 0.219472C41.9694 0.0646971 41.8124 -0.0295559 41.6575 0.0085354C41.5026 0.046534 41.4077 0.202791 41.4458 0.357288C41.7358 1.53006 42.0372 3.81109 40.8016 5.90954C40.6808 6.11445 40.5428 6.25986 40.3832 6.42798C40.1753 6.64699 39.9398 6.89482 39.6764 7.32985C39.3052 7.94228 38.721 9.12274 38.6034 10.618C38.4534 10.4368 38.3016 10.2691 38.1512 10.1047C37.6243 9.52904 37.1267 8.98548 36.7264 7.83356C36.4301 6.9811 36.4132 6.42789 36.3965 5.89304C36.379 5.34076 36.3615 4.76967 36.0483 3.93249C35.4795 2.41209 34.3541 1.10456 32.7036 0.0457883C32.6549 0.0148333 32.6007 5.48432e-07 32.5474 5.48432e-07C32.4521 -0.000184811 32.3592 0.0466209 32.304 0.13235C32.2175 0.266272 32.2562 0.444682 32.3906 0.530782Z" fill="#1D1D1E"/>
<path d="M36.5292 52.4736C36.3813 52.4736 36.2523 52.6212 36.1479 52.9074C36.0831 53.1001 35.9944 53.3144 35.8823 53.549C35.7702 53.7834 35.6343 54.0389 35.475 54.3143C35.2073 54.9199 34.8355 55.5391 34.3291 56.0511C34.16 56.2217 33.9762 56.3805 33.7755 56.5238C32.4004 57.4243 30.8134 57.7408 29.534 56.7688C29.3737 56.6736 29.2155 56.5673 29.0594 56.4496C28.9032 56.3319 28.7494 56.2029 28.5979 56.0628C28.0222 55.4885 27.5994 54.904 27.3457 54.3333C27.0403 53.7258 26.9182 53.0125 26.983 52.2127C27.0469 51.4321 27.2282 50.5593 27.5212 49.6218C27.7538 48.8201 28.0864 48.061 28.5106 47.3642C28.7213 47.0273 28.895 46.7788 29.0267 46.6254C29.1686 46.4609 29.4412 46.2738 29.8638 46.0521C30.47 45.7502 31.191 45.5971 32.0022 45.5971C32.0024 45.5971 32.1172 45.5946 32.1739 45.5946C32.918 45.5946 33.5717 45.7273 34.1347 45.9982C34.4788 46.2129 34.8153 46.4836 35.1396 46.8068C35.469 47.1576 35.6934 47.5277 35.8032 47.8982C35.9526 48.321 36.0761 48.4015 36.0895 48.4087C36.1697 48.4317 36.2737 48.4433 36.3997 48.4433C36.4498 48.4433 36.5024 48.4414 36.5584 48.438C36.6317 48.3646 36.6813 48.2734 36.7103 48.1579C36.7472 48.0289 36.7659 47.867 36.7659 47.6773C36.7659 47.5431 36.6888 47.2494 36.3211 46.6139C36.0155 46.0856 35.7165 45.643 35.4413 45.3088C34.8643 44.7142 34.1265 44.3116 33.2556 44.114C32.9341 44.0537 32.5669 44.0234 32.1637 44.0234C31.7569 44.0234 31.3125 44.0544 30.8507 44.1144C30.0449 44.255 29.3833 44.4876 28.8896 44.8026C28.1838 45.2846 27.5487 45.9596 27.0042 46.8041C26.4737 47.6784 26.0596 48.6588 25.7758 49.7093C25.6539 50.2767 25.5921 51.061 25.5921 52.0402V52.4142C25.5921 53.1268 25.6433 53.7221 25.7427 54.1769C25.8848 54.7241 26.1123 55.3325 26.417 55.9804C27.0376 57.2183 28.0753 58.0898 29.4996 58.5698C30.1237 58.7708 30.7571 58.8728 31.3821 58.8728C31.733 58.8728 32.0852 58.8412 32.4241 58.771C32.7356 58.6717 33.0287 58.5773 33.3016 58.4782C34.3048 58.0573 34.9397 57.4243 35.5136 56.766C35.729 56.4654 35.912 56.1444 36.0808 55.8205C36.1314 55.7077 36.1791 55.5941 36.2248 55.48C36.3936 55.0582 36.543 54.6281 36.7188 54.2087C36.8501 53.895 37.2304 53.4305 37.2367 53.0945C37.2212 52.9876 37.1766 52.8983 37.1002 52.8218C36.8114 52.5342 36.6303 52.4736 36.5292 52.4736Z" fill="#1D1D1E"/>
</svg>
