<svg width="16" height="17" viewBox="0 0 16 17" fill="none" xmlns="http://www.w3.org/2000/svg">
<g clip-path="url(#clip0_27_1874)">
<path d="M7.99999 0.944336C5.05142 0.944336 2.66666 3.30922 2.66666 6.23322C2.66666 10.1999 7.99999 16.0554 7.99999 16.0554C7.99999 16.0554 13.3333 10.1999 13.3333 6.23322C13.3333 3.30922 10.9486 0.944336 7.99999 0.944336ZM4.19047 6.23322C4.19047 4.14789 5.89713 2.45545 7.99999 2.45545C10.1028 2.45545 11.8095 4.14789 11.8095 6.23322C11.8095 8.40922 9.61523 11.6657 7.99999 13.6981C6.41523 11.6808 4.19047 8.38656 4.19047 6.23322Z" fill="#CF9259"/>
<path d="M8.00001 8.05556C8.98185 8.05556 9.77778 7.25962 9.77778 6.27778C9.77778 5.29594 8.98185 4.5 8.00001 4.5C7.01817 4.5 6.22223 5.29594 6.22223 6.27778C6.22223 7.25962 7.01817 8.05556 8.00001 8.05556Z" fill="#CF9259"/>
</g>
<defs>
<clipPath id="clip0_27_1874">
<rect width="16" height="16" fill="white" transform="translate(0 0.5)"/>
</clipPath>
</defs>
</svg>
