<svg width="22" height="22" viewBox="0 0 22 22" fill="none" xmlns="http://www.w3.org/2000/svg">
<path d="M11 5.19431C12.1764 5.19431 13.1389 6.15681 13.1389 7.3332C13.1389 8.50959 12.1764 9.47209 11 9.47209C9.82362 9.47209 8.86112 8.50959 8.86112 7.3332C8.86112 6.15681 9.82362 5.19431 11 5.19431ZM11 15.8888C13.8875 15.8888 17.2028 17.2683 17.4167 18.0276H4.58335C4.82932 17.2576 8.12321 15.8888 11 15.8888ZM11 3.05542C8.63654 3.05542 6.72224 4.96973 6.72224 7.3332C6.72224 9.69667 8.63654 11.611 11 11.611C13.3635 11.611 15.2778 9.69667 15.2778 7.3332C15.2778 4.96973 13.3635 3.05542 11 3.05542ZM11 13.7499C8.1446 13.7499 2.44446 15.1829 2.44446 18.0276V20.1665H19.5556V18.0276C19.5556 15.1829 13.8554 13.7499 11 13.7499Z" fill="#CF9259"/>
</svg>
