<svg width="18" height="19" viewBox="0 0 18 19" fill="none" xmlns="http://www.w3.org/2000/svg">
<path d="M12.4351 11.5629H11.7124L11.4563 11.3159C12.3528 10.273 12.8925 8.9191 12.8925 7.44625C12.8925 4.16209 10.2304 1.5 6.94625 1.5C3.66209 1.5 1 4.16209 1 7.44625C1 10.7304 3.66209 13.3925 6.94625 13.3925C8.4191 13.3925 9.77301 12.8528 10.8159 11.9563L11.0629 12.2124V12.9351L15.6369 17.5L17 16.1369L12.4351 11.5629ZM6.94625 11.5629C4.66838 11.5629 2.82962 9.72413 2.82962 7.44625C2.82962 5.16838 4.66838 3.32962 6.94625 3.32962C9.22413 3.32962 11.0629 5.16838 11.0629 7.44625C11.0629 9.72413 9.22413 11.5629 6.94625 11.5629Z" fill="#929292"/>
</svg>
